REM DIRINDEX 1\2\4\8,1\2\4\9,1\2\4\10,1\2\5\11,1\2\5\12,1\2\5\13,1\2\5\14,1\2\5\15,1\3\6\16,1\3\6\17,1\3\6\18,1\3\7\19,1\3\7\20,1\3\7\21,1\3\7\22,1\3\7\23
REM DIRNAME "folder01","folder02","folder03","folder04","folder05","folder06","folder07","folder08","folder09","folder10","folder11","folder12","folder13","folder14","folder15","folder16","folder17","folder18","folder19","folder20","folder21","folder22","folder23"
TITLE ""
FILE "LR_black_phrase_E_03.mp3" MP3
  TRACK 01 AUDIO
    TITLE "0:"
    INDEX 01 00:00:00
  TRACK 02 AUDIO
    TITLE "8:cjc171_00601"
    INDEX 01 00:00:10
  TRACK 03 AUDIO
    TITLE "0:"
    INDEX 01 00:01:29
  TRACK 04 AUDIO
    TITLE "9:cjc171_00602"
    INDEX 01 00:01:63
  TRACK 05 AUDIO
    TITLE "0:"
    INDEX 01 00:04:06
  TRACK 06 AUDIO
    TITLE "10:cjc171_00603"
    INDEX 01 00:04:59
  TRACK 07 AUDIO
    TITLE "0:"
    INDEX 01 00:07:03
  TRACK 08 AUDIO
    TITLE "8:cjc171_00604"
    INDEX 01 00:08:08
  TRACK 09 AUDIO
    TITLE "0:"
    INDEX 01 00:09:31
  TRACK 10 AUDIO
    TITLE "9:cjc171_00605"
    INDEX 01 00:09:62
  TRACK 11 AUDIO
    TITLE "0:"
    INDEX 01 00:11:51
  TRACK 12 AUDIO
    TITLE "10:cjc171_00606"
    INDEX 01 00:12:33
  TRACK 13 AUDIO
    TITLE "0:"
    INDEX 01 00:14:22
  TRACK 14 AUDIO
    TITLE "8:cjc171_00607"
    INDEX 01 00:15:27
  TRACK 15 AUDIO
    TITLE "0:"
    INDEX 01 00:16:50
  TRACK 16 AUDIO
    TITLE "9:cjc171_00608"
    INDEX 01 00:17:05
  TRACK 17 AUDIO
    TITLE "0:"
    INDEX 01 00:19:39
  TRACK 18 AUDIO
    TITLE "10:cjc171_00609"
    INDEX 01 00:20:19
  TRACK 19 AUDIO
    TITLE "0:"
    INDEX 01 00:22:55
  TRACK 20 AUDIO
    TITLE "8:cjc171_00610"
    INDEX 01 00:23:60
  TRACK 21 AUDIO
    TITLE "0:"
    INDEX 01 00:25:08
  TRACK 22 AUDIO
    TITLE "9:cjc171_00611"
    INDEX 01 00:25:38
  TRACK 23 AUDIO
    TITLE "0:"
    INDEX 01 00:28:01
  TRACK 24 AUDIO
    TITLE "10:cjc171_00612"
    INDEX 01 00:28:58
  TRACK 25 AUDIO
    TITLE "0:"
    INDEX 01 00:31:23
  TRACK 26 AUDIO
    TITLE "8:cjc171_00613"
    INDEX 01 00:32:28
  TRACK 27 AUDIO
    TITLE "0:"
    INDEX 01 00:33:65
  TRACK 28 AUDIO
    TITLE "9:cjc171_00614"
    INDEX 01 00:34:19
  TRACK 29 AUDIO
    TITLE "0:"
    INDEX 01 00:36:34
  TRACK 30 AUDIO
    TITLE "10:cjc171_00615"
    INDEX 01 00:37:15
  TRACK 31 AUDIO
    TITLE "0:"
    INDEX 01 00:39:28
  TRACK 32 AUDIO
    TITLE "8:cjc171_00616"
    INDEX 01 00:40:37
  TRACK 33 AUDIO
    TITLE "0:"
    INDEX 01 00:41:50
  TRACK 34 AUDIO
    TITLE "9:cjc171_00617"
    INDEX 01 00:42:05
  TRACK 35 AUDIO
    TITLE "0:"
    INDEX 01 00:44:10
  TRACK 36 AUDIO
    TITLE "10:cjc171_00618"
    INDEX 01 00:44:64
  TRACK 37 AUDIO
    TITLE "0:"
    INDEX 01 00:46:71
  TRACK 38 AUDIO
    TITLE "8:cjc171_00619"
    INDEX 01 00:47:75
  TRACK 39 AUDIO
    TITLE "0:"
    INDEX 01 00:49:17
  TRACK 40 AUDIO
    TITLE "9:cjc171_00620"
    INDEX 01 00:49:44
  TRACK 41 AUDIO
    TITLE "0:"
    INDEX 01 00:52:11
  TRACK 42 AUDIO
    TITLE "10:cjc171_00621"
    INDEX 01 00:52:64
  TRACK 43 AUDIO
    TITLE "0:"
    INDEX 01 00:55:31
  TRACK 44 AUDIO
    TITLE "8:cjc171_00622"
    INDEX 01 00:56:34
  TRACK 45 AUDIO
    TITLE "0:"
    INDEX 01 00:57:42
  TRACK 46 AUDIO
    TITLE "9:cjc171_00623"
    INDEX 01 00:57:73
  TRACK 47 AUDIO
    TITLE "0:"
    INDEX 01 00:59:50
  TRACK 48 AUDIO
    TITLE "10:cjc171_00624"
    INDEX 01 01:00:30
  TRACK 49 AUDIO
    TITLE "0:"
    INDEX 01 01:02:09
  TRACK 50 AUDIO
    TITLE "8:cjc171_00625"
    INDEX 01 01:03:09
  TRACK 51 AUDIO
    TITLE "0:"
    INDEX 01 01:04:28
  TRACK 52 AUDIO
    TITLE "9:cjc171_00626"
    INDEX 01 01:04:48
  TRACK 53 AUDIO
    TITLE "0:"
    INDEX 01 01:06:52
  TRACK 54 AUDIO
    TITLE "10:cjc171_00627"
    INDEX 01 01:07:24
  TRACK 55 AUDIO
    TITLE "0:"
    INDEX 01 01:09:31
  TRACK 56 AUDIO
    TITLE "8:cjc171_00628"
    INDEX 01 01:10:34
  TRACK 57 AUDIO
    TITLE "0:"
    INDEX 01 01:11:61
  TRACK 58 AUDIO
    TITLE "9:cjc171_00629"
    INDEX 01 01:12:16
  TRACK 59 AUDIO
    TITLE "0:"
    INDEX 01 01:15:04
  TRACK 60 AUDIO
    TITLE "10:cjc171_00630"
    INDEX 01 01:15:57
  TRACK 61 AUDIO
    TITLE "0:"
    INDEX 01 01:18:46
  TRACK 62 AUDIO
    TITLE "8:cjc171_00631"
    INDEX 01 01:19:41
  TRACK 63 AUDIO
    TITLE "0:"
    INDEX 01 01:20:68
  TRACK 64 AUDIO
    TITLE "9:cjc171_00632"
    INDEX 01 01:21:22
  TRACK 65 AUDIO
    TITLE "0:"
    INDEX 01 01:23:53
  TRACK 66 AUDIO
    TITLE "10:cjc171_00633"
    INDEX 01 01:24:33
  TRACK 67 AUDIO
    TITLE "0:"
    INDEX 01 01:26:63
  TRACK 68 AUDIO
    TITLE "8:cjc171_00634"
    INDEX 01 01:27:66
  TRACK 69 AUDIO
    TITLE "0:"
    INDEX 01 01:29:04
  TRACK 70 AUDIO
    TITLE "9:cjc171_00635"
    INDEX 01 01:29:30
  TRACK 71 AUDIO
    TITLE "0:"
    INDEX 01 01:32:01
  TRACK 72 AUDIO
    TITLE "10:cjc171_00636"
    INDEX 01 01:32:46
  TRACK 73 AUDIO
    TITLE "0:"
    INDEX 01 01:35:17
  TRACK 74 AUDIO
    TITLE "8:cjc171_00637"
    INDEX 01 01:36:10
  TRACK 75 AUDIO
    TITLE "0:"
    INDEX 01 01:37:23
  TRACK 76 AUDIO
    TITLE "9:cjc171_00638"
    INDEX 01 01:37:55
  TRACK 77 AUDIO
    TITLE "0:"
    INDEX 01 01:39:73
  TRACK 78 AUDIO
    TITLE "10:cjc171_00639"
    INDEX 01 01:40:61
  TRACK 79 AUDIO
    TITLE "0:"
    INDEX 01 01:43:06
  TRACK 80 AUDIO
    TITLE "8:cjc171_00640"
    INDEX 01 01:44:20
  TRACK 81 AUDIO
    TITLE "0:"
    INDEX 01 01:45:37
  TRACK 82 AUDIO
    TITLE "9:cjc171_00641"
    INDEX 01 01:45:68
  TRACK 83 AUDIO
    TITLE "0:"
    INDEX 01 01:48:06
  TRACK 84 AUDIO
    TITLE "10:cjc171_00642"
    INDEX 01 01:48:60
  TRACK 85 AUDIO
    TITLE "0:"
    INDEX 01 01:50:73
  TRACK 86 AUDIO
    TITLE "8:cjc171_00643"
    INDEX 01 01:51:73
  TRACK 87 AUDIO
    TITLE "0:"
    INDEX 01 01:53:24
  TRACK 88 AUDIO
    TITLE "9:cjc171_00644"
    INDEX 01 01:53:52
  TRACK 89 AUDIO
    TITLE "0:"
    INDEX 01 01:56:29
  TRACK 90 AUDIO
    TITLE "10:cjc171_00645"
    INDEX 01 01:57:01
  TRACK 91 AUDIO
    TITLE "0:"
    INDEX 01 01:59:52
  TRACK 92 AUDIO
    TITLE "8:cjc171_00646"
    INDEX 01 02:00:48
  TRACK 93 AUDIO
    TITLE "0:"
    INDEX 01 02:01:75
  TRACK 94 AUDIO
    TITLE "9:cjc171_00647"
    INDEX 01 02:02:33
  TRACK 95 AUDIO
    TITLE "0:"
    INDEX 01 02:04:12
  TRACK 96 AUDIO
    TITLE "10:cjc171_00648"
    INDEX 01 02:04:58
  TRACK 97 AUDIO
    TITLE "0:"
    INDEX 01 02:06:39
  TRACK 98 AUDIO
    TITLE "8:cjc171_00649"
    INDEX 01 02:07:32
  TRACK 99 AUDIO
    TITLE "0:"
    INDEX 01 02:08:44
  TRACK 100 AUDIO
    TITLE "9:cjc171_00650"
    INDEX 01 02:08:67
  TRACK 101 AUDIO
    TITLE "0:"
    INDEX 01 02:11:71
  TRACK 102 AUDIO
    TITLE "10:cjc171_00651"
    INDEX 01 02:12:45
  TRACK 103 AUDIO
    TITLE "0:"
    INDEX 01 02:15:52
  TRACK 104 AUDIO
    TITLE "8:cjc171_00652"
    INDEX 01 02:16:47
  TRACK 105 AUDIO
    TITLE "0:"
    INDEX 01 02:17:64
  TRACK 106 AUDIO
    TITLE "9:cjc171_00653"
    INDEX 01 02:18:19
  TRACK 107 AUDIO
    TITLE "0:"
    INDEX 01 02:20:72
  TRACK 108 AUDIO
    TITLE "10:cjc171_00654"
    INDEX 01 02:21:50
  TRACK 109 AUDIO
    TITLE "0:"
    INDEX 01 02:24:29
  TRACK 110 AUDIO
    TITLE "8:cjc171_00655"
    INDEX 01 02:25:28
  TRACK 111 AUDIO
    TITLE "0:"
    INDEX 01 02:26:61
  TRACK 112 AUDIO
    TITLE "9:cjc171_00656"
    INDEX 01 02:27:12
  TRACK 113 AUDIO
    TITLE "0:"
    INDEX 01 02:29:30
  TRACK 114 AUDIO
    TITLE "10:cjc171_00657"
    INDEX 01 02:30:02
  TRACK 115 AUDIO
    TITLE "0:"
    INDEX 01 02:32:21
  TRACK 116 AUDIO
    TITLE "8:cjc171_00658"
    INDEX 01 02:33:18
  TRACK 117 AUDIO
    TITLE "0:"
    INDEX 01 02:34:47
  TRACK 118 AUDIO
    TITLE "9:cjc171_00659"
    INDEX 01 02:34:70
  TRACK 119 AUDIO
    TITLE "0:"
    INDEX 01 02:36:75
  TRACK 120 AUDIO
    TITLE "10:cjc171_00660"
    INDEX 01 02:37:47
  TRACK 121 AUDIO
    TITLE "0:"
    INDEX 01 02:39:54
  TRACK 122 AUDIO
    TITLE "8:cjc171_00661"
    INDEX 01 02:40:55
  TRACK 123 AUDIO
    TITLE "0:"
    INDEX 01 02:42:03
  TRACK 124 AUDIO
    TITLE "9:cjc171_00662"
    INDEX 01 02:42:35
  TRACK 125 AUDIO
    TITLE "0:"
    INDEX 01 02:44:39
  TRACK 126 AUDIO
    TITLE "10:cjc171_00663"
    INDEX 01 02:45:27
  TRACK 127 AUDIO
    TITLE "0:"
    INDEX 01 02:47:40
  TRACK 128 AUDIO
    TITLE "8:cjc171_00664"
    INDEX 01 02:48:45
  TRACK 129 AUDIO
    TITLE "0:"
    INDEX 01 02:50:09
  TRACK 130 AUDIO
    TITLE "9:cjc171_00665"
    INDEX 01 02:50:40
  TRACK 131 AUDIO
    TITLE "0:"
    INDEX 01 02:52:37
  TRACK 132 AUDIO
    TITLE "10:cjc171_00666"
    INDEX 01 02:53:17
  TRACK 133 AUDIO
    TITLE "0:"
    INDEX 01 02:55:14
  TRACK 134 AUDIO
    TITLE "8:cjc171_00667"
    INDEX 01 02:56:19
  TRACK 135 AUDIO
    TITLE "0:"
    INDEX 01 02:57:46
  TRACK 136 AUDIO
    TITLE "9:cjc171_00668"
    INDEX 01 02:58:02
  TRACK 137 AUDIO
    TITLE "0:"
    INDEX 01 02:59:70
  TRACK 138 AUDIO
    TITLE "10:cjc171_00669"
    INDEX 01 03:00:50
  TRACK 139 AUDIO
    TITLE "0:"
    INDEX 01 03:02:43
  TRACK 140 AUDIO
    TITLE "8:cjc171_00670"
    INDEX 01 03:03:49
  TRACK 141 AUDIO
    TITLE "0:"
    INDEX 01 03:04:66
  TRACK 142 AUDIO
    TITLE "9:cjc171_00671"
    INDEX 01 03:05:18
  TRACK 143 AUDIO
    TITLE "0:"
    INDEX 01 03:07:31
  TRACK 144 AUDIO
    TITLE "10:cjc171_00672"
    INDEX 01 03:08:12
  TRACK 145 AUDIO
    TITLE "0:"
    INDEX 01 03:10:23
  TRACK 146 AUDIO
    TITLE "8:cjc171_00673"
    INDEX 01 03:11:28
  TRACK 147 AUDIO
    TITLE "0:"
    INDEX 01 03:12:49
  TRACK 148 AUDIO
    TITLE "9:cjc171_00674"
    INDEX 01 03:13:04
  TRACK 149 AUDIO
    TITLE "0:"
    INDEX 01 03:15:26
  TRACK 150 AUDIO
    TITLE "10:cjc171_00675"
    INDEX 01 03:16:04
  TRACK 151 AUDIO
    TITLE "0:"
    INDEX 01 03:18:27
  TRACK 152 AUDIO
    TITLE "8:cjc171_00676"
    INDEX 01 03:19:30
  TRACK 153 AUDIO
    TITLE "0:"
    INDEX 01 03:20:43
  TRACK 154 AUDIO
    TITLE "9:cjc171_00677"
    INDEX 01 03:20:73
  TRACK 155 AUDIO
    TITLE "0:"
    INDEX 01 03:22:64
  TRACK 156 AUDIO
    TITLE "10:cjc171_00678"
    INDEX 01 03:23:41
  TRACK 157 AUDIO
    TITLE "0:"
    INDEX 01 03:25:33
  TRACK 158 AUDIO
    TITLE "8:cjc171_00679"
    INDEX 01 03:26:38
  TRACK 159 AUDIO
    TITLE "0:"
    INDEX 01 03:27:49
  TRACK 160 AUDIO
    TITLE "9:cjc171_00680"
    INDEX 01 03:28:03
  TRACK 161 AUDIO
    TITLE "0:"
    INDEX 01 03:30:45
  TRACK 162 AUDIO
    TITLE "10:cjc171_00681"
    INDEX 01 03:31:23
  TRACK 163 AUDIO
    TITLE "0:"
    INDEX 01 03:33:65
  TRACK 164 AUDIO
    TITLE "8:cjc171_00682"
    INDEX 01 03:34:69
  TRACK 165 AUDIO
    TITLE "0:"
    INDEX 01 03:36:07
  TRACK 166 AUDIO
    TITLE "9:cjc171_00683"
    INDEX 01 03:36:36
  TRACK 167 AUDIO
    TITLE "0:"
    INDEX 01 03:38:10
  TRACK 168 AUDIO
    TITLE "10:cjc171_00684"
    INDEX 01 03:38:66
  TRACK 169 AUDIO
    TITLE "0:"
    INDEX 01 03:40:36
  TRACK 170 AUDIO
    TITLE "8:cjc171_00685"
    INDEX 01 03:41:43
  TRACK 171 AUDIO
    TITLE "0:"
    INDEX 01 03:42:60
  TRACK 172 AUDIO
    TITLE "9:cjc171_00686"
    INDEX 01 03:43:15
  TRACK 173 AUDIO
    TITLE "0:"
    INDEX 01 03:46:52
  TRACK 174 AUDIO
    TITLE "10:cjc171_00687"
    INDEX 01 03:47:32
  TRACK 175 AUDIO
    TITLE "0:"
    INDEX 01 03:50:72
  TRACK 176 AUDIO
    TITLE "8:cjc171_00688"
    INDEX 01 03:51:75
  TRACK 177 AUDIO
    TITLE "0:"
    INDEX 01 03:53:27
  TRACK 178 AUDIO
    TITLE "9:cjc171_00689"
    INDEX 01 03:53:58
  TRACK 179 AUDIO
    TITLE "0:"
    INDEX 01 03:55:45
  TRACK 180 AUDIO
    TITLE "10:cjc171_00690"
    INDEX 01 03:56:27
  TRACK 181 AUDIO
    TITLE "0:"
    INDEX 01 03:58:16
  TRACK 182 AUDIO
    TITLE "8:cjc171_00691"
    INDEX 01 03:59:16
  TRACK 183 AUDIO
    TITLE "0:"
    INDEX 01 04:00:39
  TRACK 184 AUDIO
    TITLE "9:cjc171_00692"
    INDEX 01 04:00:52
  TRACK 185 AUDIO
    TITLE "0:"
    INDEX 01 04:02:26
  TRACK 186 AUDIO
    TITLE "10:cjc171_00693"
    INDEX 01 04:02:65
  TRACK 187 AUDIO
    TITLE "0:"
    INDEX 01 04:04:38
  TRACK 188 AUDIO
    TITLE "8:cjc171_00694"
    INDEX 01 04:05:38
  TRACK 189 AUDIO
    TITLE "0:"
    INDEX 01 04:06:63
  TRACK 190 AUDIO
    TITLE "9:cjc171_00695"
    INDEX 01 04:07:17
  TRACK 191 AUDIO
    TITLE "0:"
    INDEX 01 04:09:16
  TRACK 192 AUDIO
    TITLE "10:cjc171_00696"
    INDEX 01 04:09:69
  TRACK 193 AUDIO
    TITLE "0:"
    INDEX 01 04:11:68
  TRACK 194 AUDIO
    TITLE "8:cjc171_00697"
    INDEX 01 04:12:73
  TRACK 195 AUDIO
    TITLE "0:"
    INDEX 01 04:14:23
  TRACK 196 AUDIO
    TITLE "9:cjc171_00698"
    INDEX 01 04:14:47
  TRACK 197 AUDIO
    TITLE "0:"
    INDEX 01 04:16:32
  TRACK 198 AUDIO
    TITLE "10:cjc171_00699"
    INDEX 01 04:17:06
  TRACK 199 AUDIO
    TITLE "0:"
    INDEX 01 04:18:64
  TRACK 200 AUDIO
    TITLE "8:cjc171_00700"
    INDEX 01 04:19:63
  TRACK 201 AUDIO
    TITLE "0:"
    INDEX 01 04:21:02
  TRACK 202 AUDIO
    TITLE "9:cjc171_00701"
    INDEX 01 04:21:29
  TRACK 203 AUDIO
    TITLE "0:"
    INDEX 01 04:24:39
  TRACK 204 AUDIO
    TITLE "10:cjc171_00702"
    INDEX 01 04:25:15
  TRACK 205 AUDIO
    TITLE "0:"
    INDEX 01 04:28:27
  TRACK 206 AUDIO
    TITLE "8:cjc171_00703"
    INDEX 01 04:29:25
  TRACK 207 AUDIO
    TITLE "0:"
    INDEX 01 04:30:26
  TRACK 208 AUDIO
    TITLE "9:cjc171_00704"
    INDEX 01 04:30:57
  TRACK 209 AUDIO
    TITLE "0:"
    INDEX 01 04:33:11
  TRACK 210 AUDIO
    TITLE "10:cjc171_00705"
    INDEX 01 04:33:62
  TRACK 211 AUDIO
    TITLE "0:"
    INDEX 01 04:36:17
  TRACK 212 AUDIO
    TITLE "8:cjc171_00706"
    INDEX 01 04:37:18
  TRACK 213 AUDIO
    TITLE "0:"
    INDEX 01 04:38:49
  TRACK 214 AUDIO
    TITLE "9:cjc171_00707"
    INDEX 01 04:39:04
  TRACK 215 AUDIO
    TITLE "0:"
    INDEX 01 04:41:40
  TRACK 216 AUDIO
    TITLE "10:cjc171_00708"
    INDEX 01 04:42:18
  TRACK 217 AUDIO
    TITLE "0:"
    INDEX 01 04:44:54
  TRACK 218 AUDIO
    TITLE "8:cjc171_00709"
    INDEX 01 04:45:57
  TRACK 219 AUDIO
    TITLE "0:"
    INDEX 01 04:47:05
  TRACK 220 AUDIO
    TITLE "9:cjc171_00710"
    INDEX 01 04:47:23
  TRACK 221 AUDIO
    TITLE "0:"
    INDEX 01 04:50:03
  TRACK 222 AUDIO
    TITLE "10:cjc171_00711"
    INDEX 01 04:50:52
  TRACK 223 AUDIO
    TITLE "0:"
    INDEX 01 04:53:33
  TRACK 224 AUDIO
    TITLE "8:cjc171_00712"
    INDEX 01 04:54:36
  TRACK 225 AUDIO
    TITLE "0:"
    INDEX 01 04:55:53
  TRACK 226 AUDIO
    TITLE "9:cjc171_00713"
    INDEX 01 04:56:08
  TRACK 227 AUDIO
    TITLE "0:"
    INDEX 01 04:58:19
  TRACK 228 AUDIO
    TITLE "10:cjc171_00714"
    INDEX 01 04:58:71
  TRACK 229 AUDIO
    TITLE "0:"
    INDEX 01 05:01:07
  TRACK 230 AUDIO
    TITLE "8:cjc171_00715"
    INDEX 01 05:02:12
  TRACK 231 AUDIO
    TITLE "0:"
    INDEX 01 05:03:28
  TRACK 232 AUDIO
    TITLE "9:cjc171_00716"
    INDEX 01 05:03:57
  TRACK 233 AUDIO
    TITLE "0:"
    INDEX 01 05:06:24
  TRACK 234 AUDIO
    TITLE "10:cjc171_00717"
    INDEX 01 05:07:04
  TRACK 235 AUDIO
    TITLE "0:"
    INDEX 01 05:09:46
  TRACK 236 AUDIO
    TITLE "8:cjc171_00718"
    INDEX 01 05:10:49
  TRACK 237 AUDIO
    TITLE "0:"
    INDEX 01 05:11:74
  TRACK 238 AUDIO
    TITLE "9:cjc171_00719"
    INDEX 01 05:12:15
  TRACK 239 AUDIO
    TITLE "0:"
    INDEX 01 05:15:15
  TRACK 240 AUDIO
    TITLE "10:cjc171_00720"
    INDEX 01 05:15:62
  TRACK 241 AUDIO
    TITLE "0:"
    INDEX 01 05:18:62
  TRACK 242 AUDIO
    TITLE "8:cjc171_00721"
    INDEX 01 05:19:68
  TRACK 243 AUDIO
    TITLE "0:"
    INDEX 01 05:21:12
  TRACK 244 AUDIO
    TITLE "9:cjc171_00722"
    INDEX 01 05:21:43
  TRACK 245 AUDIO
    TITLE "0:"
    INDEX 01 05:23:60
  TRACK 246 AUDIO
    TITLE "10:cjc171_00723"
    INDEX 01 05:24:39
  TRACK 247 AUDIO
    TITLE "0:"
    INDEX 01 05:26:58
  TRACK 248 AUDIO
    TITLE "8:cjc171_00724"
    INDEX 01 05:27:63
  TRACK 249 AUDIO
    TITLE "0:"
    INDEX 01 05:28:67
  TRACK 250 AUDIO
    TITLE "9:cjc171_00725"
    INDEX 01 05:29:23
  TRACK 251 AUDIO
    TITLE "0:"
    INDEX 01 05:30:64
  TRACK 252 AUDIO
    TITLE "10:cjc171_00726"
    INDEX 01 05:31:41
  TRACK 253 AUDIO
    TITLE "0:"
    INDEX 01 05:33:09
  TRACK 254 AUDIO
    TITLE "8:cjc171_00727"
    INDEX 01 05:34:12
  TRACK 255 AUDIO
    TITLE "0:"
    INDEX 01 05:35:43
  TRACK 256 AUDIO
    TITLE "9:cjc171_00728"
    INDEX 01 05:35:73
  TRACK 257 AUDIO
    TITLE "0:"
    INDEX 01 05:37:60
  TRACK 258 AUDIO
    TITLE "10:cjc171_00729"
    INDEX 01 05:38:40
  TRACK 259 AUDIO
    TITLE "0:"
    INDEX 01 05:40:29
  TRACK 260 AUDIO
    TITLE "8:cjc171_00730"
    INDEX 01 05:41:32
  TRACK 261 AUDIO
    TITLE "0:"
    INDEX 01 05:42:43
  TRACK 262 AUDIO
    TITLE "9:cjc171_00731"
    INDEX 01 05:42:75
  TRACK 263 AUDIO
    TITLE "0:"
    INDEX 01 05:44:56
  TRACK 264 AUDIO
    TITLE "10:cjc171_00732"
    INDEX 01 05:45:34
  TRACK 265 AUDIO
    TITLE "0:"
    INDEX 01 05:47:15
  TRACK 266 AUDIO
    TITLE "8:cjc171_00733"
    INDEX 01 05:48:20
  TRACK 267 AUDIO
    TITLE "0:"
    INDEX 01 05:49:33
  TRACK 268 AUDIO
    TITLE "9:cjc171_00734"
    INDEX 01 05:49:65
  TRACK 269 AUDIO
    TITLE "0:"
    INDEX 01 05:52:26
  TRACK 270 AUDIO
    TITLE "10:cjc171_00735"
    INDEX 01 05:53:04
  TRACK 271 AUDIO
    TITLE "0:"
    INDEX 01 05:55:42
  TRACK 272 AUDIO
    TITLE "8:cjc171_00736"
    INDEX 01 05:56:47
  TRACK 273 AUDIO
    TITLE "0:"
    INDEX 01 05:57:51
  TRACK 274 AUDIO
    TITLE "9:cjc171_00737"
    INDEX 01 05:58:05
  TRACK 275 AUDIO
    TITLE "0:"
    INDEX 01 05:59:61
  TRACK 276 AUDIO
    TITLE "10:cjc171_00738"
    INDEX 01 06:00:41
  TRACK 277 AUDIO
    TITLE "0:"
    INDEX 01 06:02:20
  TRACK 278 AUDIO
    TITLE "8:cjc171_00739"
    INDEX 01 06:03:24
  TRACK 279 AUDIO
    TITLE "0:"
    INDEX 01 06:04:29
  TRACK 280 AUDIO
    TITLE "9:cjc171_00740"
    INDEX 01 06:04:55
  TRACK 281 AUDIO
    TITLE "0:"
    INDEX 01 06:07:04
  TRACK 282 AUDIO
    TITLE "10:cjc171_00741"
    INDEX 01 06:07:61
  TRACK 283 AUDIO
    TITLE "0:"
    INDEX 01 06:10:10
  TRACK 284 AUDIO
    TITLE "8:cjc171_00742"
    INDEX 01 06:11:15
  TRACK 285 AUDIO
    TITLE "0:"
    INDEX 01 06:12:29
  TRACK 286 AUDIO
    TITLE "9:cjc171_00743"
    INDEX 01 06:12:60
  TRACK 287 AUDIO
    TITLE "0:"
    INDEX 01 06:15:31
  TRACK 288 AUDIO
    TITLE "10:cjc171_00744"
    INDEX 01 06:16:13
  TRACK 289 AUDIO
    TITLE "0:"
    INDEX 01 06:18:59
  TRACK 290 AUDIO
    TITLE "8:cjc171_00745"
    INDEX 01 06:19:64
  TRACK 291 AUDIO
    TITLE "0:"
    INDEX 01 06:20:75
  TRACK 292 AUDIO
    TITLE "9:cjc171_00746"
    INDEX 01 06:21:30
  TRACK 293 AUDIO
    TITLE "0:"
    INDEX 01 06:23:42
  TRACK 294 AUDIO
    TITLE "10:cjc171_00747"
    INDEX 01 06:24:22
  TRACK 295 AUDIO
    TITLE "0:"
    INDEX 01 06:26:35
  TRACK 296 AUDIO
    TITLE "8:cjc171_00748"
    INDEX 01 06:27:40
  TRACK 297 AUDIO
    TITLE "0:"
    INDEX 01 06:28:61
  TRACK 298 AUDIO
    TITLE "9:cjc171_00749"
    INDEX 01 06:29:19
  TRACK 299 AUDIO
    TITLE "0:"
    INDEX 01 06:31:26
  TRACK 300 AUDIO
    TITLE "10:cjc171_00750"
    INDEX 01 06:32:08
  TRACK 301 AUDIO
    TITLE "0:"
    INDEX 01 06:34:13
  TRACK 302 AUDIO
    TITLE "8:cjc171_00751"
    INDEX 01 06:35:10
  TRACK 303 AUDIO
    TITLE "0:"
    INDEX 01 06:36:53
  TRACK 304 AUDIO
    TITLE "9:cjc171_00752"
    INDEX 01 06:36:74
  TRACK 305 AUDIO
    TITLE "0:"
    INDEX 01 06:39:61
  TRACK 306 AUDIO
    TITLE "10:cjc171_00753"
    INDEX 01 06:40:33
  TRACK 307 AUDIO
    TITLE "0:"
    INDEX 01 06:43:19
  TRACK 308 AUDIO
    TITLE "8:cjc171_00754"
    INDEX 01 06:44:15
  TRACK 309 AUDIO
    TITLE "0:"
    INDEX 01 06:45:38
  TRACK 310 AUDIO
    TITLE "9:cjc171_00755"
    INDEX 01 06:45:57
  TRACK 311 AUDIO
    TITLE "0:"
    INDEX 01 06:47:74
  TRACK 312 AUDIO
    TITLE "10:cjc171_00756"
    INDEX 01 06:48:42
  TRACK 313 AUDIO
    TITLE "0:"
    INDEX 01 06:50:59
  TRACK 314 AUDIO
    TITLE "8:cjc171_00757"
    INDEX 01 06:51:52
  TRACK 315 AUDIO
    TITLE "0:"
    INDEX 01 06:53:06
  TRACK 316 AUDIO
    TITLE "9:cjc171_00758"
    INDEX 01 06:53:30
  TRACK 317 AUDIO
    TITLE "0:"
    INDEX 01 06:55:28
  TRACK 318 AUDIO
    TITLE "10:cjc171_00759"
    INDEX 01 06:56:01
  TRACK 319 AUDIO
    TITLE "0:"
    INDEX 01 06:58:01
  TRACK 320 AUDIO
    TITLE "8:cjc171_00760"
    INDEX 01 06:58:72
  TRACK 321 AUDIO
    TITLE "0:"
    INDEX 01 07:00:30
  TRACK 322 AUDIO
    TITLE "9:cjc171_00761"
    INDEX 01 07:00:61
  TRACK 323 AUDIO
    TITLE "0:"
    INDEX 01 07:03:22
  TRACK 324 AUDIO
    TITLE "10:cjc171_00762"
    INDEX 01 07:04:02
  TRACK 325 AUDIO
    TITLE "0:"
    INDEX 01 07:06:38
  TRACK 326 AUDIO
    TITLE "8:cjc171_00763"
    INDEX 01 07:07:45
  TRACK 327 AUDIO
    TITLE "0:"
    INDEX 01 07:08:57
  TRACK 328 AUDIO
    TITLE "9:cjc171_00764"
    INDEX 01 07:09:03
  TRACK 329 AUDIO
    TITLE "0:"
    INDEX 01 07:11:49
  TRACK 330 AUDIO
    TITLE "10:cjc171_00765"
    INDEX 01 07:12:25
  TRACK 331 AUDIO
    TITLE "0:"
    INDEX 01 07:14:69
  TRACK 332 AUDIO
    TITLE "8:cjc171_00766"
    INDEX 01 07:15:66
  TRACK 333 AUDIO
    TITLE "0:"
    INDEX 01 07:17:22
  TRACK 334 AUDIO
    TITLE "9:cjc171_00767"
    INDEX 01 07:17:52
  TRACK 335 AUDIO
    TITLE "0:"
    INDEX 01 07:19:47
  TRACK 336 AUDIO
    TITLE "10:cjc171_00768"
    INDEX 01 07:20:24
  TRACK 337 AUDIO
    TITLE "0:"
    INDEX 01 07:22:19
  TRACK 338 AUDIO
    TITLE "8:cjc171_00769"
    INDEX 01 07:23:23
  TRACK 339 AUDIO
    TITLE "0:"
    INDEX 01 07:24:32
  TRACK 340 AUDIO
    TITLE "9:cjc171_00770"
    INDEX 01 07:24:60
  TRACK 341 AUDIO
    TITLE "0:"
    INDEX 01 07:27:07
  TRACK 342 AUDIO
    TITLE "10:cjc171_00771"
    INDEX 01 07:27:52
  TRACK 343 AUDIO
    TITLE "0:"
    INDEX 01 07:29:74
  TRACK 344 AUDIO
    TITLE "8:cjc171_00772"
    INDEX 01 07:30:70
  TRACK 345 AUDIO
    TITLE "0:"
    INDEX 01 07:32:24
  TRACK 346 AUDIO
    TITLE "9:cjc171_00773"
    INDEX 01 07:32:49
  TRACK 347 AUDIO
    TITLE "0:"
    INDEX 01 07:34:44
  TRACK 348 AUDIO
    TITLE "10:cjc171_00774"
    INDEX 01 07:35:14
  TRACK 349 AUDIO
    TITLE "0:"
    INDEX 01 07:37:09
  TRACK 350 AUDIO
    TITLE "8:cjc171_00775"
    INDEX 01 07:38:07
  TRACK 351 AUDIO
    TITLE "0:"
    INDEX 01 07:39:28
  TRACK 352 AUDIO
    TITLE "9:cjc171_00776"
    INDEX 01 07:39:47
  TRACK 353 AUDIO
    TITLE "0:"
    INDEX 01 07:42:20
  TRACK 354 AUDIO
    TITLE "10:cjc171_00777"
    INDEX 01 07:42:67
  TRACK 355 AUDIO
    TITLE "0:"
    INDEX 01 07:45:42
  TRACK 356 AUDIO
    TITLE "8:cjc171_00778"
    INDEX 01 07:46:38
  TRACK 357 AUDIO
    TITLE "0:"
    INDEX 01 07:47:59
  TRACK 358 AUDIO
    TITLE "9:cjc171_00779"
    INDEX 01 07:48:05
  TRACK 359 AUDIO
    TITLE "0:"
    INDEX 01 07:49:75
  TRACK 360 AUDIO
    TITLE "10:cjc171_00780"
    INDEX 01 07:50:45
  TRACK 361 AUDIO
    TITLE "0:"
    INDEX 01 07:52:40
  TRACK 362 AUDIO
    TITLE "8:cjc171_00781"
    INDEX 01 07:53:40
  TRACK 363 AUDIO
    TITLE "0:"
    INDEX 01 07:55:01
  TRACK 364 AUDIO
    TITLE "9:cjc171_00782"
    INDEX 01 07:55:29
  TRACK 365 AUDIO
    TITLE "0:"
    INDEX 01 07:58:04
  TRACK 366 AUDIO
    TITLE "10:cjc171_00783"
    INDEX 01 07:58:60
  TRACK 367 AUDIO
    TITLE "0:"
    INDEX 01 08:01:35
  TRACK 368 AUDIO
    TITLE "8:cjc171_00784"
    INDEX 01 08:02:43
  TRACK 369 AUDIO
    TITLE "0:"
    INDEX 01 08:03:56
  TRACK 370 AUDIO
    TITLE "9:cjc171_00785"
    INDEX 01 08:04:10
  TRACK 371 AUDIO
    TITLE "0:"
    INDEX 01 08:06:13
  TRACK 372 AUDIO
    TITLE "10:cjc171_00786"
    INDEX 01 08:06:68
  TRACK 373 AUDIO
    TITLE "0:"
    INDEX 01 08:08:72
  TRACK 374 AUDIO
    TITLE "8:cjc171_00787"
    INDEX 01 08:09:74
  TRACK 375 AUDIO
    TITLE "0:"
    INDEX 01 08:11:32
  TRACK 376 AUDIO
    TITLE "9:cjc171_00788"
    INDEX 01 08:11:59
  TRACK 377 AUDIO
    TITLE "0:"
    INDEX 01 08:13:54
  TRACK 378 AUDIO
    TITLE "10:cjc171_00789"
    INDEX 01 08:14:34
  TRACK 379 AUDIO
    TITLE "0:"
    INDEX 01 08:16:31
  TRACK 380 AUDIO
    TITLE "8:cjc171_00790"
    INDEX 01 08:17:34
  TRACK 381 AUDIO
    TITLE "0:"
    INDEX 01 08:18:57
  TRACK 382 AUDIO
    TITLE "9:cjc171_00791"
    INDEX 01 08:19:10
  TRACK 383 AUDIO
    TITLE "0:"
    INDEX 01 08:21:26
  TRACK 384 AUDIO
    TITLE "10:cjc171_00792"
    INDEX 01 08:22:04
  TRACK 385 AUDIO
    TITLE "0:"
    INDEX 01 08:24:21
  TRACK 386 AUDIO
    TITLE "8:cjc171_00793"
    INDEX 01 08:25:24
  TRACK 387 AUDIO
    TITLE "0:"
    INDEX 01 08:26:43
  TRACK 388 AUDIO
    TITLE "9:cjc171_00794"
    INDEX 01 08:26:72
  TRACK 389 AUDIO
    TITLE "0:"
    INDEX 01 08:28:56
  TRACK 390 AUDIO
    TITLE "10:cjc171_00795"
    INDEX 01 08:29:35
  TRACK 391 AUDIO
    TITLE "0:"
    INDEX 01 08:31:17
  TRACK 392 AUDIO
    TITLE "8:cjc171_00796"
    INDEX 01 08:32:22
  TRACK 393 AUDIO
    TITLE "0:"
    INDEX 01 08:33:35
  TRACK 394 AUDIO
    TITLE "9:cjc171_00797"
    INDEX 01 08:33:65
  TRACK 395 AUDIO
    TITLE "0:"
    INDEX 01 08:36:18
  TRACK 396 AUDIO
    TITLE "10:cjc171_00798"
    INDEX 01 08:36:73
  TRACK 397 AUDIO
    TITLE "0:"
    INDEX 01 08:39:24
  TRACK 398 AUDIO
    TITLE "8:cjc171_00799"
    INDEX 01 08:40:29
  TRACK 399 AUDIO
    TITLE "0:"
    INDEX 01 08:41:39
  TRACK 400 AUDIO
    TITLE "9:cjc171_00800"
    INDEX 01 08:41:70
  TRACK 401 AUDIO
    TITLE "0:"
    INDEX 01 08:43:65
  TRACK 402 AUDIO
    TITLE "10:cjc171_00801"
    INDEX 01 08:44:45
  TRACK 403 AUDIO
    TITLE "0:"
    INDEX 01 08:46:40
  TRACK 404 AUDIO
    TITLE "8:cjc171_00802"
    INDEX 01 08:47:45
  TRACK 405 AUDIO
    TITLE "0:"
    INDEX 01 08:48:74
  TRACK 406 AUDIO
    TITLE "9:cjc171_00803"
    INDEX 01 08:49:26
  TRACK 407 AUDIO
    TITLE "0:"
    INDEX 01 08:52:01
  TRACK 408 AUDIO
    TITLE "10:cjc171_00804"
    INDEX 01 08:52:54
  TRACK 409 AUDIO
    TITLE "0:"
    INDEX 01 08:55:29
  TRACK 410 AUDIO
    TITLE "8:cjc171_00805"
    INDEX 01 08:56:34
  TRACK 411 AUDIO
    TITLE "0:"
    INDEX 01 08:57:49
  TRACK 412 AUDIO
    TITLE "9:cjc171_00806"
    INDEX 01 08:58:06
  TRACK 413 AUDIO
    TITLE "0:"
    INDEX 01 09:00:38
  TRACK 414 AUDIO
    TITLE "10:cjc171_00807"
    INDEX 01 09:01:20
  TRACK 415 AUDIO
    TITLE "0:"
    INDEX 01 09:03:50
  TRACK 416 AUDIO
    TITLE "8:cjc171_00808"
    INDEX 01 09:04:55
  TRACK 417 AUDIO
    TITLE "0:"
    INDEX 01 09:06:13
  TRACK 418 AUDIO
    TITLE "9:cjc171_00809"
    INDEX 01 09:06:42
  TRACK 419 AUDIO
    TITLE "0:"
    INDEX 01 09:09:10
  TRACK 420 AUDIO
    TITLE "10:cjc171_00810"
    INDEX 01 09:09:57
  TRACK 421 AUDIO
    TITLE "0:"
    INDEX 01 09:12:24
  TRACK 422 AUDIO
    TITLE "8:cjc171_00811"
    INDEX 01 09:13:17
  TRACK 423 AUDIO
    TITLE "0:"
    INDEX 01 09:14:42
  TRACK 424 AUDIO
    TITLE "9:cjc171_00812"
    INDEX 01 09:14:66
  TRACK 425 AUDIO
    TITLE "0:"
    INDEX 01 09:17:56
  TRACK 426 AUDIO
    TITLE "10:cjc171_00813"
    INDEX 01 09:18:28
  TRACK 427 AUDIO
    TITLE "0:"
    INDEX 01 09:21:19
  TRACK 428 AUDIO
    TITLE "8:cjc171_00814"
    INDEX 01 09:22:18
  TRACK 429 AUDIO
    TITLE "0:"
    INDEX 01 09:23:27
  TRACK 430 AUDIO
    TITLE "9:cjc171_00815"
    INDEX 01 09:23:53
  TRACK 431 AUDIO
    TITLE "0:"
    INDEX 01 09:26:33
  TRACK 432 AUDIO
    TITLE "10:cjc171_00816"
    INDEX 01 09:27:07
  TRACK 433 AUDIO
    TITLE "0:"
    INDEX 01 09:29:63
  TRACK 434 AUDIO
    TITLE "8:cjc171_00817"
    INDEX 01 09:30:63
  TRACK 435 AUDIO
    TITLE "0:"
    INDEX 01 09:31:74
  TRACK 436 AUDIO
    TITLE "9:cjc171_00818"
    INDEX 01 09:32:20
  TRACK 437 AUDIO
    TITLE "0:"
    INDEX 01 09:34:56
  TRACK 438 AUDIO
    TITLE "10:cjc171_00819"
    INDEX 01 09:35:34
  TRACK 439 AUDIO
    TITLE "0:"
    INDEX 01 09:37:72
  TRACK 440 AUDIO
    TITLE "8:cjc171_00820"
    INDEX 01 09:39:01
  TRACK 441 AUDIO
    TITLE "0:"
    INDEX 01 09:40:20
  TRACK 442 AUDIO
    TITLE "9:cjc171_00821"
    INDEX 01 09:40:39
  TRACK 443 AUDIO
    TITLE "0:"
    INDEX 01 09:42:62
  TRACK 444 AUDIO
    TITLE "10:cjc171_00822"
    INDEX 01 09:43:32
  TRACK 445 AUDIO
    TITLE "0:"
    INDEX 01 09:45:54
  TRACK 446 AUDIO
    TITLE "8:cjc171_00823"
    INDEX 01 09:46:50
  TRACK 447 AUDIO
    TITLE "0:"
    INDEX 01 09:47:71
  TRACK 448 AUDIO
    TITLE "9:cjc171_00824"
    INDEX 01 09:48:21
  TRACK 449 AUDIO
    TITLE "0:"
    INDEX 01 09:50:44
  TRACK 450 AUDIO
    TITLE "10:cjc171_00825"
    INDEX 01 09:51:12
  TRACK 451 AUDIO
    TITLE "0:"
    INDEX 01 09:53:32
  TRACK 452 AUDIO
    TITLE "8:cjc171_00826"
    INDEX 01 09:54:28
  TRACK 453 AUDIO
    TITLE "0:"
    INDEX 01 09:55:47
  TRACK 454 AUDIO
    TITLE "9:cjc171_00827"
    INDEX 01 09:55:64
  TRACK 455 AUDIO
    TITLE "0:"
    INDEX 01 09:57:57
  TRACK 456 AUDIO
    TITLE "10:cjc171_00828"
    INDEX 01 09:58:28
  TRACK 457 AUDIO
    TITLE "0:"
    INDEX 01 10:00:21
  TRACK 458 AUDIO
    TITLE "8:cjc171_00829"
    INDEX 01 10:01:16
  TRACK 459 AUDIO
    TITLE "0:"
    INDEX 01 10:02:21
  TRACK 460 AUDIO
    TITLE "9:cjc171_00830"
    INDEX 01 10:02:47
  TRACK 461 AUDIO
    TITLE "0:"
    INDEX 01 10:04:61
  TRACK 462 AUDIO
    TITLE "10:cjc171_00831"
    INDEX 01 10:05:34
  TRACK 463 AUDIO
    TITLE "0:"
    INDEX 01 10:07:48
  TRACK 464 AUDIO
    TITLE "8:cjc171_00832"
    INDEX 01 10:08:42
  TRACK 465 AUDIO
    TITLE "0:"
    INDEX 01 10:09:70
  TRACK 466 AUDIO
    TITLE "9:cjc171_00833"
    INDEX 01 10:10:15
  TRACK 467 AUDIO
    TITLE "0:"
    INDEX 01 10:12:69
  TRACK 468 AUDIO
    TITLE "10:cjc171_00834"
    INDEX 01 10:13:39
  TRACK 469 AUDIO
    TITLE "0:"
    INDEX 01 10:16:20
  TRACK 470 AUDIO
    TITLE "8:cjc171_00835"
    INDEX 01 10:17:17
  TRACK 471 AUDIO
    TITLE "0:"
    INDEX 01 10:18:48
  TRACK 472 AUDIO
    TITLE "9:cjc171_00836"
    INDEX 01 10:18:67
  TRACK 473 AUDIO
    TITLE "0:"
    INDEX 01 10:21:52
  TRACK 474 AUDIO
    TITLE "10:cjc171_00837"
    INDEX 01 10:22:26
  TRACK 475 AUDIO
    TITLE "0:"
    INDEX 01 10:25:13
  TRACK 476 AUDIO
    TITLE "8:cjc171_00838"
    INDEX 01 10:26:12
  TRACK 477 AUDIO
    TITLE "0:"
    INDEX 01 10:27:37
  TRACK 478 AUDIO
    TITLE "9:cjc171_00839"
    INDEX 01 10:27:61
  TRACK 479 AUDIO
    TITLE "0:"
    INDEX 01 10:30:12
  TRACK 480 AUDIO
    TITLE "10:cjc171_00840"
    INDEX 01 10:30:57
  TRACK 481 AUDIO
    TITLE "0:"
    INDEX 01 10:33:08
  TRACK 482 AUDIO
    TITLE "8:cjc171_00841"
    INDEX 01 10:34:10
  TRACK 483 AUDIO
    TITLE "0:"
    INDEX 01 10:35:09
  TRACK 484 AUDIO
    TITLE "9:cjc171_00842"
    INDEX 01 10:35:40
  TRACK 485 AUDIO
    TITLE "0:"
    INDEX 01 10:37:55
  TRACK 486 AUDIO
    TITLE "10:cjc171_00843"
    INDEX 01 10:38:41
  TRACK 487 AUDIO
    TITLE "0:"
    INDEX 01 10:40:55
  TRACK 488 AUDIO
    TITLE "8:cjc171_00844"
    INDEX 01 10:41:61
  TRACK 489 AUDIO
    TITLE "0:"
    INDEX 01 10:43:05
  TRACK 490 AUDIO
    TITLE "9:cjc171_00845"
    INDEX 01 10:43:38
  TRACK 491 AUDIO
    TITLE "0:"
    INDEX 01 10:46:09
  TRACK 492 AUDIO
    TITLE "10:cjc171_00846"
    INDEX 01 10:46:64
  TRACK 493 AUDIO
    TITLE "0:"
    INDEX 01 10:49:37
  TRACK 494 AUDIO
    TITLE "8:cjc171_00847"
    INDEX 01 10:50:40
  TRACK 495 AUDIO
    TITLE "0:"
    INDEX 01 10:51:57
  TRACK 496 AUDIO
    TITLE "9:cjc171_00848"
    INDEX 01 10:52:12
  TRACK 497 AUDIO
    TITLE "0:"
    INDEX 01 10:55:02
  TRACK 498 AUDIO
    TITLE "10:cjc171_00849"
    INDEX 01 10:55:57
  TRACK 499 AUDIO
    TITLE "0:"
    INDEX 01 10:58:47
  TRACK 500 AUDIO
    TITLE "8:cjc171_00850"
    INDEX 01 10:59:53
  TRACK 501 AUDIO
    TITLE "0:"
    INDEX 01 11:00:70
  TRACK 502 AUDIO
    TITLE "9:cjc171_00851"
    INDEX 01 11:01:24
  TRACK 503 AUDIO
    TITLE "0:"
    INDEX 01 11:03:52
  TRACK 504 AUDIO
    TITLE "10:cjc171_00852"
    INDEX 01 11:04:32
  TRACK 505 AUDIO
    TITLE "0:"
    INDEX 01 11:06:61
  TRACK 506 AUDIO
    TITLE "8:cjc171_00853"
    INDEX 01 11:07:64
  TRACK 507 AUDIO
    TITLE "0:"
    INDEX 01 11:09:08
  TRACK 508 AUDIO
    TITLE "9:cjc171_00854"
    INDEX 01 11:09:28
  TRACK 509 AUDIO
    TITLE "0:"
    INDEX 01 11:10:74
  TRACK 510 AUDIO
    TITLE "10:cjc171_00855"
    INDEX 01 11:11:46
  TRACK 511 AUDIO
    TITLE "0:"
    INDEX 01 11:13:16
  TRACK 512 AUDIO
    TITLE "8:cjc171_00856"
    INDEX 01 11:14:23
  TRACK 513 AUDIO
    TITLE "0:"
    INDEX 01 11:15:32
  TRACK 514 AUDIO
    TITLE "9:cjc171_00857"
    INDEX 01 11:15:64
  TRACK 515 AUDIO
    TITLE "0:"
    INDEX 01 11:17:55
  TRACK 516 AUDIO
    TITLE "10:cjc171_00858"
    INDEX 01 11:18:34
  TRACK 517 AUDIO
    TITLE "0:"
    INDEX 01 11:20:27
  TRACK 518 AUDIO
    TITLE "8:cjc171_00859"
    INDEX 01 11:21:33
  TRACK 519 AUDIO
    TITLE "0:"
    INDEX 01 11:22:52
  TRACK 520 AUDIO
    TITLE "9:cjc171_00860"
    INDEX 01 11:23:08
  TRACK 521 AUDIO
    TITLE "0:"
    INDEX 01 11:25:05
  TRACK 522 AUDIO
    TITLE "10:cjc171_00861"
    INDEX 01 11:25:60
  TRACK 523 AUDIO
    TITLE "0:"
    INDEX 01 11:27:57
  TRACK 524 AUDIO
    TITLE "8:cjc171_00862"
    INDEX 01 11:28:62
  TRACK 525 AUDIO
    TITLE "0:"
    INDEX 01 11:30:02
  TRACK 526 AUDIO
    TITLE "9:cjc171_00863"
    INDEX 01 11:30:32
  TRACK 527 AUDIO
    TITLE "0:"
    INDEX 01 11:33:16
  TRACK 528 AUDIO
    TITLE "10:cjc171_00864"
    INDEX 01 11:33:69
  TRACK 529 AUDIO
    TITLE "0:"
    INDEX 01 11:36:54
  TRACK 530 AUDIO
    TITLE "8:cjc171_00865"
    INDEX 01 11:37:57
  TRACK 531 AUDIO
    TITLE "0:"
    INDEX 01 11:39:05
  TRACK 532 AUDIO
    TITLE "9:cjc171_00866"
    INDEX 01 11:39:35
  TRACK 533 AUDIO
    TITLE "0:"
    INDEX 01 11:43:52
  TRACK 534 AUDIO
    TITLE "10:cjc171_00867"
    INDEX 01 11:44:30
  TRACK 535 AUDIO
    TITLE "0:"
    INDEX 01 11:48:45
  TRACK 536 AUDIO
    TITLE "8:cjc171_00868"
    INDEX 01 11:49:51
  TRACK 537 AUDIO
    TITLE "0:"
    INDEX 01 11:50:68
  TRACK 538 AUDIO
    TITLE "9:cjc171_00869"
    INDEX 01 11:51:22
  TRACK 539 AUDIO
    TITLE "0:"
    INDEX 01 11:53:31
  TRACK 540 AUDIO
    TITLE "10:cjc171_00870"
    INDEX 01 11:54:11
  TRACK 541 AUDIO
    TITLE "0:"
    INDEX 01 11:56:19
  TRACK 542 AUDIO
    TITLE "8:cjc171_00871"
    INDEX 01 11:57:17
  TRACK 543 AUDIO
    TITLE "0:"
    INDEX 01 11:58:30
  TRACK 544 AUDIO
    TITLE "9:cjc171_00872"
    INDEX 01 11:58:59
  TRACK 545 AUDIO
    TITLE "0:"
    INDEX 01 12:01:60
  TRACK 546 AUDIO
    TITLE "10:cjc171_00873"
    INDEX 01 12:02:34
  TRACK 547 AUDIO
    TITLE "0:"
    INDEX 01 12:05:34
  TRACK 548 AUDIO
    TITLE "8:cjc171_00874"
    INDEX 01 12:06:30
  TRACK 549 AUDIO
    TITLE "0:"
    INDEX 01 12:07:60
  TRACK 550 AUDIO
    TITLE "9:cjc171_00875"
    INDEX 01 12:08:05
  TRACK 551 AUDIO
    TITLE "0:"
    INDEX 01 12:10:35
  TRACK 552 AUDIO
    TITLE "10:cjc171_00876"
    INDEX 01 12:11:05
  TRACK 553 AUDIO
    TITLE "0:"
    INDEX 01 12:13:35
  TRACK 554 AUDIO
    TITLE "8:cjc171_00877"
    INDEX 01 12:14:29
  TRACK 555 AUDIO
    TITLE "0:"
    INDEX 01 12:15:40
  TRACK 556 AUDIO
    TITLE "9:cjc171_00878"
    INDEX 01 12:15:60
  TRACK 557 AUDIO
    TITLE "0:"
    INDEX 01 12:17:29
  TRACK 558 AUDIO
    TITLE "10:cjc171_00879"
    INDEX 01 12:18:01
  TRACK 559 AUDIO
    TITLE "0:"
    INDEX 01 12:19:48
  TRACK 560 AUDIO
    TITLE "8:cjc171_00880"
    INDEX 01 12:20:47
  TRACK 561 AUDIO
    TITLE "0:"
    INDEX 01 12:21:68
  TRACK 562 AUDIO
    TITLE "9:cjc171_00881"
    INDEX 01 12:22:13
  TRACK 563 AUDIO
    TITLE "0:"
    INDEX 01 12:24:55
  TRACK 564 AUDIO
    TITLE "10:cjc171_00882"
    INDEX 01 12:25:25
  TRACK 565 AUDIO
    TITLE "0:"
    INDEX 01 12:27:69
  TRACK 566 AUDIO
    TITLE "8:cjc171_00883"
    INDEX 01 12:28:62
  TRACK 567 AUDIO
    TITLE "0:"
    INDEX 01 12:30:08
  TRACK 568 AUDIO
    TITLE "9:cjc171_00884"
    INDEX 01 12:30:30
  TRACK 569 AUDIO
    TITLE "0:"
    INDEX 01 12:32:74
  TRACK 570 AUDIO
    TITLE "10:cjc171_00885"
    INDEX 01 12:33:44
  TRACK 571 AUDIO
    TITLE "0:"
    INDEX 01 12:36:15
  TRACK 572 AUDIO
    TITLE "8:cjc171_00886"
    INDEX 01 12:37:10
  TRACK 573 AUDIO
    TITLE "0:"
    INDEX 01 12:38:24
  TRACK 574 AUDIO
    TITLE "9:cjc171_00887"
    INDEX 01 12:38:41
  TRACK 575 AUDIO
    TITLE "0:"
    INDEX 01 12:40:32
  TRACK 576 AUDIO
    TITLE "10:cjc171_00888"
    INDEX 01 12:41:02
  TRACK 577 AUDIO
    TITLE "0:"
    INDEX 01 12:42:66
  TRACK 578 AUDIO
    TITLE "8:cjc171_00889"
    INDEX 01 12:43:62
  TRACK 579 AUDIO
    TITLE "0:"
    INDEX 01 12:44:75
  TRACK 580 AUDIO
    TITLE "9:cjc171_00890"
    INDEX 01 12:45:20
  TRACK 581 AUDIO
    TITLE "0:"
    INDEX 01 12:47:60
  TRACK 582 AUDIO
    TITLE "10:cjc171_00891"
    INDEX 01 12:48:30
  TRACK 583 AUDIO
    TITLE "0:"
    INDEX 01 12:50:70
  TRACK 584 AUDIO
    TITLE "8:cjc171_00892"
    INDEX 01 12:51:64
  TRACK 585 AUDIO
    TITLE "0:"
    INDEX 01 12:53:15
  TRACK 586 AUDIO
    TITLE "9:cjc171_00893"
    INDEX 01 12:53:37
  TRACK 587 AUDIO
    TITLE "0:"
    INDEX 01 12:55:40
  TRACK 588 AUDIO
    TITLE "10:cjc171_00894"
    INDEX 01 12:56:12
  TRACK 589 AUDIO
    TITLE "0:"
    INDEX 01 12:58:19
  TRACK 590 AUDIO
    TITLE "8:cjc171_00895"
    INDEX 01 12:59:12
  TRACK 591 AUDIO
    TITLE "0:"
    INDEX 01 13:00:43
  TRACK 592 AUDIO
    TITLE "9:cjc171_00896"
    INDEX 01 13:00:64
  TRACK 593 AUDIO
    TITLE "0:"
    INDEX 01 13:04:01
  TRACK 594 AUDIO
    TITLE "10:cjc171_00897"
    INDEX 01 13:04:52
  TRACK 595 AUDIO
    TITLE "0:"
    INDEX 01 13:07:64
  TRACK 596 AUDIO
    TITLE "8:cjc171_00898"
    INDEX 01 13:08:64
  TRACK 597 AUDIO
    TITLE "0:"
    INDEX 01 13:10:12
  TRACK 598 AUDIO
    TITLE "9:cjc171_00899"
    INDEX 01 13:10:31
  TRACK 599 AUDIO
    TITLE "0:"
    INDEX 01 13:12:42
  TRACK 600 AUDIO
    TITLE "10:cjc171_00900"
    INDEX 01 13:13:12
  TRACK 601 AUDIO
    TITLE "0:"
    INDEX 01 13:15:21
